<svg width="24" height="24" viewBox="0 0 24 24" fill="none" xmlns="http://www.w3.org/2000/svg">
<path d="M6.00947 5C6.13713 3.32189 7.53919 2 9.25 2H17.25C19.8734 2 22 4.12665 22 6.75V10.064C21.849 9.99176 21.6713 9.95054 21.46 9.95054C21.0119 9.95054 20.7141 10.1373 20.5 10.4126V6.75C20.5 4.95507 19.0449 3.5 17.25 3.5H9.25C8.36838 3.5 7.63903 4.15193 7.51772 5H6.00947ZM18 13.774V14.0482C17.8283 13.9819 17.645 13.9487 17.46 13.951C17.1033 13.9521 16.7671 14.0773 16.5 14.2909V9.25C16.5 8.2835 15.7165 7.5 14.75 7.5H5.25C4.2835 7.5 3.5 8.2835 3.5 9.25V18.75C3.5 19.7165 4.2835 20.5 5.25 20.5H8.5V18.75C8.5 17.5074 9.50736 16.5 10.75 16.5H15.5725C15.383 16.9993 14.9002 17.3713 14.4 17.541L13.0029 18H10.75C10.3358 18 10 18.3358 10 18.75V20.5H12.3428C12.5229 20.7239 12.7655 20.8995 13.05 21.001L14.39 21.441C14.6962 21.5437 14.9715 21.73 15.1832 21.9714C15.0415 21.9903 14.8969 22 14.75 22H5.25C3.45507 22 2 20.5449 2 18.75V9.25C2 7.45507 3.45507 6 5.25 6H14.75C16.5449 6 18 7.45507 18 9.25V13.1335C17.9731 13.2365 17.9591 13.3431 17.96 13.451C17.9595 13.5604 17.9731 13.6689 18 13.774ZM16.0883 17.5877C16.016 17.6811 15.9377 17.7702 15.8539 17.8543C15.5417 18.1674 15.1606 18.4033 14.741 18.5432L13.3632 18.9906C13.257 19.028 13.165 19.0975 13.1 19.1893C13.0349 19.2812 13 19.3909 13 19.5034C13 19.616 13.0349 19.7257 13.1 19.8176C13.165 19.9094 13.257 19.9788 13.3632 20.0163L14.741 20.4637C15.1547 20.6065 15.5299 20.8429 15.837 21.1546C16.1357 21.4578 16.3623 21.8241 16.5 22.2263L16.5114 22.2604L16.9592 23.6371C16.9967 23.7432 17.0662 23.8351 17.1581 23.9001C17.25 23.9651 17.3598 24 17.4724 24C17.5851 24 17.6949 23.9651 17.7868 23.9001C17.8787 23.8351 17.9482 23.7432 17.9857 23.6371L18.4335 22.2604C18.5727 21.8418 18.8077 21.4615 19.1198 21.1496C19.432 20.8377 19.8126 20.6029 20.2315 20.4637L21.6093 20.0163L21.6368 20.0094C21.743 19.972 21.835 19.9025 21.9 19.8107C21.9651 19.7188 22 19.6091 22 19.4966C22 19.384 21.9651 19.2743 21.9 19.1824C21.835 19.0906 21.743 19.0212 21.6368 18.9837L20.259 18.5363C19.8402 18.3971 19.4595 18.1623 19.1474 17.8504C18.8353 17.5385 18.6003 17.1582 18.461 16.7396L18.0132 15.3629C18.0092 15.3514 18.0048 15.3402 18 15.3291C17.9605 15.2373 17.8964 15.1579 17.8144 15.0999C17.7224 15.0349 17.6126 15 17.5 15C17.3874 15 17.2776 15.0349 17.1856 15.0999C17.0937 15.1649 17.0242 15.2568 16.9868 15.3629L16.539 16.7396C16.4378 17.0467 16.2851 17.3334 16.0883 17.5877ZM23.7829 13.7868L23.0175 14.0354C22.7848 14.1127 22.5733 14.2432 22.3999 14.4164C22.2265 14.5897 22.0959 14.801 22.0186 15.0335L21.7698 15.7984C21.749 15.8573 21.7104 15.9084 21.6593 15.9445C21.6083 15.9806 21.5473 16 21.4847 16C21.4221 16 21.3611 15.9806 21.31 15.9445C21.259 15.9084 21.2204 15.8573 21.1996 15.7984L20.9508 15.0335C20.875 14.8026 20.7467 14.5924 20.5761 14.4192C20.4055 14.2461 20.1971 14.1147 19.9672 14.0354L19.2018 13.7868C19.1428 13.766 19.0917 13.7275 19.0555 13.6764C19.0194 13.6254 19 13.5644 19 13.5019C19 13.4394 19.0194 13.3784 19.0555 13.3274C19.0917 13.2764 19.1428 13.2378 19.2018 13.217L19.9672 12.9684C20.2003 12.8907 20.412 12.7597 20.5855 12.5857C20.7589 12.4118 20.8893 12.1997 20.9661 11.9665L21.2149 11.2016C21.2357 11.1427 21.2743 11.0916 21.3254 11.0555C21.3764 11.0194 21.4374 11 21.5 11C21.5626 11 21.6236 11.0194 21.6746 11.0555C21.7257 11.0916 21.7643 11.1427 21.7851 11.2016L22.0339 11.9665C22.1113 12.199 22.2418 12.4103 22.4152 12.5836C22.5886 12.7568 22.8001 12.8873 23.0328 12.9646L23.7982 13.2132C23.8572 13.234 23.9083 13.2725 23.9445 13.3236C23.9806 13.3746 24 13.4356 24 13.4981C24 13.5606 23.9806 13.6216 23.9445 13.6726C23.9083 13.7236 23.8572 13.7622 23.7982 13.783L23.7829 13.7868Z" fill="#717680"/>
</svg>
