<svg width="20" height="20" viewBox="0 0 20 20" fill="none" xmlns="http://www.w3.org/2000/svg">
<path d="M3.33337 8.33366V12.1203C3.33337 14.8245 3.33337 16.177 4.07171 17.0928C4.22082 17.2778 4.38928 17.4462 4.57421 17.5953C5.49171 18.3337 6.84254 18.3337 9.54671 18.3337C10.1342 18.3337 10.4284 18.3337 10.6975 18.2387C10.7531 18.2187 10.8078 18.1959 10.8617 18.1703C11.12 18.047 11.3275 17.8395 11.7434 17.4237L15.69 13.477C16.1725 12.9953 16.4125 12.7545 16.54 12.4478C16.6667 12.1412 16.6667 11.8012 16.6667 11.1195V8.33366C16.6667 5.19116 16.6667 3.61949 15.69 2.64366C14.7134 1.66783 13.1425 1.66699 10 1.66699M10.8334 17.917V17.5003C10.8334 15.1437 10.8334 13.9645 11.5659 13.2328C12.2975 12.5003 13.4767 12.5003 15.8334 12.5003H16.25" stroke="#EB670E" stroke-width="1.5" stroke-linecap="round" stroke-linejoin="round"/>
<path d="M7.72671 8.63354C7.89439 8.80821 8.09524 8.94766 8.3175 9.04373C8.53975 9.1398 8.77895 9.19055 9.02106 9.19302C9.26318 9.19549 9.50336 9.14963 9.72752 9.05811C9.95169 8.96659 10.1553 8.83126 10.3266 8.66005C10.4978 8.48884 10.6331 8.28519 10.7246 8.06102C10.8161 7.83685 10.862 7.59668 10.8595 7.35456C10.8571 7.11244 10.8063 6.87325 10.7102 6.651C10.6142 6.42874 10.4747 6.22789 10.3 6.06021L8.69171 4.45187C8.36707 4.12743 7.93184 3.93762 7.47319 3.92047C7.01454 3.90332 6.56634 4.06009 6.21838 4.35937M6.44004 2.20021C6.27236 2.02554 6.07151 1.88608 5.84925 1.79001C5.627 1.69394 5.38781 1.64319 5.14569 1.64072C4.90357 1.63825 4.6634 1.68412 4.43923 1.77563C4.21506 1.86715 4.01141 2.00248 3.84019 2.17369C3.66898 2.3449 3.53366 2.54856 3.44214 2.77272C3.35062 2.99689 3.30475 3.23707 3.30722 3.47919C3.30969 3.7213 3.36045 3.96049 3.45652 4.18275C3.55259 4.405 3.69204 4.60585 3.86671 4.77354L5.47504 6.38187C6.15338 7.06021 7.23338 7.09104 7.94838 6.47437" stroke="#EB670E" stroke-width="1.5" stroke-linecap="round" stroke-linejoin="round"/>
</svg>
