<svg width="20" height="20" viewBox="0 0 20 20" fill="none" xmlns="http://www.w3.org/2000/svg">
<path d="M11.2763 2.21523C11.8517 1.65341 12.6253 1.34102 13.4295 1.34576C14.2336 1.3505 15.0035 1.67199 15.5722 2.24055C16.1409 2.8091 16.4627 3.5789 16.4676 4.38306C16.4726 5.18722 16.1604 5.96093 15.5988 6.53648L15.2588 6.87523L15.3663 6.98273C15.835 7.45155 16.0982 8.08732 16.0982 8.75023C16.0982 9.41314 15.835 10.0489 15.3663 10.5177L13.5663 12.3177C13.4484 12.4316 13.2905 12.4946 13.1267 12.4931C12.9628 12.4917 12.806 12.426 12.6901 12.3101C12.5743 12.1942 12.5085 12.0375 12.5071 11.8736C12.5057 11.7097 12.5687 11.5519 12.6825 11.434L14.4825 9.63398C14.7169 9.39957 14.8485 9.08168 14.8485 8.75023C14.8485 8.41877 14.7169 8.10089 14.4825 7.86648L14.375 7.75898L7.31753 14.8177C7.23711 14.8977 7.13643 14.9543 7.02628 14.9815L2.02628 16.2315C1.9177 16.2584 1.80388 16.2558 1.69669 16.2238C1.58949 16.1917 1.49286 16.1315 1.41688 16.0494C1.34089 15.9673 1.28834 15.8663 1.26471 15.7569C1.24108 15.6476 1.24723 15.5339 1.28253 15.4277L2.84503 10.7402C2.8755 10.6485 2.92685 10.565 2.99503 10.4965L11.2763 2.21523ZM14.7138 3.09898C14.3751 2.76083 13.9161 2.5709 13.4375 2.5709C12.959 2.5709 12.4999 2.76083 12.1613 3.09898L3.98378 11.2752L2.82753 14.7427L6.55503 13.8115L14.715 5.65273C15.0536 5.31402 15.2437 4.85473 15.2437 4.37585C15.2437 3.89697 15.0536 3.43769 14.715 3.09898M6.20878 18.7502C4.66503 18.7502 3.44878 18.0427 2.64003 17.3665L4.24503 16.9665C4.84229 17.3105 5.5183 17.4944 6.20753 17.5002C6.71503 17.5002 7.23753 17.2952 7.79503 16.929C8.35253 16.5627 8.89253 16.0702 9.43753 15.5602L9.57878 15.4265C10.06 14.9752 10.5588 14.5052 11.0363 14.1815C11.5463 13.834 12.2238 13.519 12.9325 13.7927C13.4025 13.9727 13.7075 14.3052 13.9213 14.7127C14.1225 15.0952 14.2613 15.5727 14.3963 16.094C14.4588 16.3315 14.5625 16.5615 14.6838 16.7165C14.7235 16.7705 14.7716 16.8178 14.8263 16.8565C14.8575 16.8752 14.8713 16.8752 14.875 16.8752C15.0275 16.8752 15.2888 16.7727 15.6625 16.5177C15.8938 16.3602 16.0925 16.2027 16.29 16.044C16.4117 15.9465 16.5375 15.8486 16.6675 15.7502C17.0163 15.489 17.3175 15.314 17.5388 15.2027C17.6519 15.1452 17.7679 15.0935 17.8863 15.0477L17.9113 15.0377L17.92 15.0352L17.9238 15.034H17.925L18.125 15.6252L17.9263 15.0327C18.0826 14.9819 18.2528 14.9946 18.3998 15.0683C18.5468 15.142 18.6588 15.2707 18.7116 15.4264C18.7644 15.5822 18.7537 15.7524 18.6818 15.9003C18.6099 16.0482 18.4826 16.1618 18.3275 16.2165L18.3225 16.219L18.2838 16.234C18.2454 16.249 18.1854 16.2769 18.1038 16.3177C17.9413 16.399 17.7025 16.5365 17.4163 16.7515C17.3425 16.8052 17.2475 16.8815 17.1375 16.969C16.9113 17.1477 16.6263 17.374 16.365 17.5515C15.9775 17.8165 15.4388 18.1265 14.875 18.1265C14.33 18.1265 13.9363 17.7952 13.6925 17.4802C13.4541 17.16 13.282 16.7954 13.1863 16.4077C13.0488 15.879 12.9413 15.5327 12.8163 15.2952C12.7038 15.0852 12.6038 15.0052 12.4838 14.9577C12.3813 14.9202 12.1775 14.9165 11.74 15.2152C11.3488 15.4802 10.9213 15.8815 10.4175 16.3552L10.2925 16.4715C9.75378 16.9777 9.14253 17.5402 8.48128 17.974C7.81878 18.409 7.05628 18.7502 6.20878 18.7502Z" fill="#EB670E"/>
</svg>
