<svg width="24" height="24" viewBox="0 0 24 24" fill="none" xmlns="http://www.w3.org/2000/svg">
<path d="M1.6731 12.998L1.9231 11.998H6.4031L6.1531 12.998H1.6731ZM7.5001 19C6.8081 19 6.2181 18.7567 5.7301 18.27C5.2421 17.7833 4.99876 17.1933 5.0001 16.5H2.7701L3.2701 14.498H7.3291L8.1901 11.002H10.3291L11.3291 7.002H5.3271L5.6311 5.902C5.69243 5.64 5.82243 5.42433 6.0211 5.255C6.21776 5.085 6.45543 5 6.7341 5H17.8071L16.9971 8.5H19.0761L21.7881 12.116L20.9221 16.5H19.7681C19.7681 17.1927 19.5248 17.7827 19.0381 18.27C18.5514 18.7573 17.9614 19.0007 17.2681 19C16.5748 18.9993 15.9851 18.756 15.4991 18.27C15.0131 17.784 14.7698 17.194 14.7691 16.5H10.0001C10.0001 17.1927 9.75676 17.7827 9.2701 18.27C8.78343 18.7573 8.19343 19.0007 7.5001 19ZM3.6731 9.502L3.9231 8.502H9.4031L9.1531 9.502H3.6731ZM7.5001 18C7.91143 18 8.26443 17.853 8.5591 17.559C8.8531 17.2643 9.0001 16.9113 9.0001 16.5C9.0001 16.0887 8.8531 15.7357 8.5591 15.441C8.2651 15.1463 7.9121 14.9993 7.5001 15C7.0881 15.0007 6.7351 15.1477 6.4411 15.441C6.1471 15.7357 6.0001 16.0887 6.0001 16.5C6.0001 16.9113 6.1471 17.2643 6.4411 17.559C6.73576 17.853 7.08876 18 7.5001 18ZM17.2701 18C17.6814 18 18.0341 17.853 18.3281 17.559C18.6221 17.2643 18.7691 16.9113 18.7691 16.5C18.7691 16.0887 18.6221 15.7357 18.3281 15.441C18.0341 15.1463 17.6811 14.9993 17.2691 15C16.8571 15.0007 16.5044 15.1477 16.2111 15.441C15.9164 15.7357 15.7691 16.0887 15.7691 16.5C15.7691 16.9113 15.9161 17.2643 16.2101 17.559C16.5048 17.853 16.8581 18 17.2701 18ZM15.8861 13.25H20.5391L20.7151 12.36L18.5771 9.5H16.7591L15.8861 13.25Z" fill="#EB670E"/>
</svg>
