<svg width="20" height="20" viewBox="0 0 20 20" fill="none" xmlns="http://www.w3.org/2000/svg">
<path d="M12.5001 17.4993V13.3327C12.5001 13.1117 12.4123 12.8997 12.256 12.7434C12.0998 12.5871 11.8878 12.4993 11.6668 12.4993H8.33346C8.11244 12.4993 7.90048 12.5871 7.7442 12.7434C7.58792 12.8997 7.50012 13.1117 7.50012 13.3327V17.4993M14.8118 8.59102C14.6381 8.42471 14.4069 8.33188 14.1664 8.33188C13.9259 8.33188 13.6947 8.42471 13.521 8.59102C13.1335 8.96061 12.6185 9.16681 12.083 9.16681C11.5475 9.16681 11.0326 8.96061 10.6451 8.59102C10.4714 8.42496 10.2404 8.33228 10.0001 8.33228C9.75983 8.33228 9.5288 8.42496 9.35512 8.59102C8.96759 8.96086 8.45248 9.16721 7.91679 9.16721C7.3811 9.16721 6.86599 8.96086 6.47846 8.59102C6.30474 8.42471 6.07353 8.33188 5.83304 8.33188C5.59255 8.33188 5.36134 8.42471 5.18762 8.59102C4.81333 8.94819 4.31952 9.15332 3.80231 9.16647C3.28511 9.17962 2.78151 8.99986 2.38954 8.66216C1.99758 8.32447 1.74529 7.85301 1.68178 7.33955C1.61827 6.82609 1.74808 6.30737 2.04596 5.88435L4.45346 2.39768C4.60621 2.17228 4.81187 1.98773 5.05244 1.86018C5.29301 1.73263 5.56117 1.66597 5.83346 1.66602H14.1668C14.4383 1.66591 14.7057 1.73213 14.9458 1.85892C15.1858 1.98571 15.3913 2.16923 15.5443 2.39352L17.9568 5.88685C18.2547 6.3102 18.3844 6.82932 18.3205 7.34305C18.2566 7.85677 18.0037 8.3283 17.6111 8.66576C17.2185 9.00321 16.7144 9.18241 16.1969 9.16844C15.6794 9.15447 15.1856 8.94833 14.8118 8.59018" stroke="#414651" stroke-width="1.2" stroke-linecap="round" stroke-linejoin="round"/>
<path d="M3.33301 9.125V15.8333C3.33301 16.2754 3.5086 16.6993 3.82116 17.0118C4.13372 17.3244 4.55765 17.5 4.99967 17.5H14.9997C15.4417 17.5 15.8656 17.3244 16.1782 17.0118C16.4907 16.6993 16.6663 16.2754 16.6663 15.8333V9.125" stroke="#414651" stroke-width="1.2" stroke-linecap="round" stroke-linejoin="round"/>
</svg>
