<svg width="20" height="20" viewBox="0 0 20 20" fill="none" xmlns="http://www.w3.org/2000/svg">
<g clip-path="url(#clip0_413_10916)">
<path d="M2 3.25C2 2.00736 3.00736 1 4.25 1H13.75C14.9926 1 16 2.00736 16 3.25V12H20V15.75C20 17.5449 18.5449 19 16.75 19H10.95C10.9828 18.8384 11 18.6712 11 18.5V17.5H14.5V3.25C14.5 2.83579 14.1642 2.5 13.75 2.5H4.25C3.83579 2.5 3.5 2.83579 3.5 3.25V12H2V3.25ZM16 17.5H16.75C17.7165 17.5 18.5 16.7165 18.5 15.75V13.5H16V17.5ZM6.25 5C5.83579 5 5.5 5.33579 5.5 5.75C5.5 6.16421 5.83579 6.5 6.25 6.5H11.75C12.1642 6.5 12.5 6.16421 12.5 5.75C12.5 5.33579 12.1642 5 11.75 5H6.25ZM5.5 9.75C5.5 9.33579 5.83579 9 6.25 9H11.75C12.1642 9 12.5 9.33579 12.5 9.75C12.5 10.1642 12.1642 10.5 11.75 10.5H6.25C5.83579 10.5 5.5 10.1642 5.5 9.75ZM0.5 13C-0.328427 13 -1 13.6716 -1 14.5V18.5C-1 19.3284 -0.328427 20 0.5 20H8.5C9.32843 20 10 19.3284 10 18.5V14.5C10 13.6716 9.32843 13 8.5 13H0.5ZM8 14C8 14.5523 8.44771 15 9 15V16C7.89543 16 7 15.1046 7 14H8ZM7 19C7 17.8954 7.89543 17 9 17V18C8.44771 18 8 18.4477 8 19H7ZM0 15C0.552285 15 1 14.5523 1 14H2C2 15.1046 1.10457 16 0 16V15ZM0 17C1.10457 17 2 17.8954 2 19H1C1 18.4477 0.552284 18 0 18V17ZM4.5 14.75C5.4665 14.75 6.25 15.5335 6.25 16.5C6.25 17.4665 5.4665 18.25 4.5 18.25C3.5335 18.25 2.75 17.4665 2.75 16.5C2.75 15.5335 3.5335 14.75 4.5 14.75Z" fill="#4F4F4F"/>
</g>
<defs>
<clipPath id="clip0_413_10916">
<rect width="20" height="20" fill="white"/>
</clipPath>
</defs>
</svg>
