<svg width="18" height="18" viewBox="0 0 18 18" fill="none" xmlns="http://www.w3.org/2000/svg">
<path d="M3 7.5V10.908C3 13.3417 3 14.559 3.6645 15.3832C3.7987 15.5497 3.95032 15.7013 4.11675 15.8355C4.9425 16.5 6.15825 16.5 8.592 16.5C9.12075 16.5 9.3855 16.5 9.62775 16.4145C9.67775 16.3965 9.727 16.376 9.7755 16.353C10.008 16.242 10.1947 16.0552 10.569 15.681L14.121 12.129C14.5552 11.6955 14.7712 11.4787 14.886 11.2027C15 10.9267 15 10.6207 15 10.0072V7.5C15 4.67175 15 3.25725 14.121 2.379C13.242 1.50075 11.8282 1.5 9 1.5M9.75 16.125V15.75C9.75 13.629 9.75 12.5677 10.4092 11.9092C11.0677 11.25 12.129 11.25 14.25 11.25H14.625" stroke="#181D27" stroke-width="1.2" stroke-linecap="round" stroke-linejoin="round"/>
<path d="M6.954 7.77C7.10492 7.9272 7.28568 8.05271 7.48571 8.13917C7.68574 8.22564 7.90101 8.27132 8.11892 8.27354C8.33682 8.27576 8.55298 8.23448 8.75473 8.15211C8.95649 8.06975 9.13977 7.94795 9.29386 7.79386C9.44795 7.63977 9.56975 7.45649 9.65211 7.25473C9.73448 7.05298 9.77576 6.83682 9.77354 6.61892C9.77132 6.40101 9.72564 6.18574 9.63917 5.98571C9.55271 5.78568 9.4272 5.60492 9.27 5.454L7.8225 4.0065C7.53033 3.7145 7.13861 3.54368 6.72583 3.52824C6.31305 3.5128 5.90967 3.65389 5.5965 3.92325M5.796 1.98C5.64509 1.8228 5.46432 1.69729 5.26429 1.61083C5.06426 1.52437 4.84899 1.47869 4.63108 1.47646C4.41318 1.47424 4.19702 1.51552 3.99527 1.59789C3.79352 1.68025 3.61023 1.80205 3.45614 1.95614C3.30205 2.11023 3.18025 2.29352 3.09789 2.49527C3.01552 2.69702 2.97424 2.91318 2.97646 3.13108C2.97869 3.34899 3.02437 3.56426 3.11083 3.76429C3.19729 3.96432 3.3228 4.14509 3.48 4.296L4.9275 5.7435C5.538 6.354 6.51 6.38175 7.1535 5.82675" stroke="#181D27" stroke-width="1.2" stroke-linecap="round" stroke-linejoin="round"/>
</svg>
