<svg width="16" height="16" viewBox="0 0 16 16" fill="none" xmlns="http://www.w3.org/2000/svg">
<path d="M9.33335 1.33334H4.00002C3.6464 1.33334 3.30726 1.47382 3.05721 1.72387C2.80716 1.97392 2.66669 2.31305 2.66669 2.66668V13.3333C2.66669 13.687 2.80716 14.0261 3.05721 14.2762C3.30726 14.5262 3.6464 14.6667 4.00002 14.6667H12C12.3536 14.6667 12.6928 14.5262 12.9428 14.2762C13.1929 14.0261 13.3334 13.687 13.3334 13.3333V5.33334M9.33335 1.33334L13.3334 5.33334M9.33335 1.33334V5.33334H13.3334M10.6667 8.66668H5.33335M10.6667 11.3333H5.33335M6.66669 6.00001H5.33335" stroke="#181D27" stroke-linecap="round" stroke-linejoin="round"/>
</svg>
