<svg width="16" height="16" viewBox="0 0 16 16" fill="none" xmlns="http://www.w3.org/2000/svg">
<g clip-path="url(#clip0_379_12869)">
<path d="M7.99998 2.14526C11.2333 2.14526 13.8545 4.7664 13.8545 7.99974C13.8545 11.2331 11.2333 13.8542 7.99998 13.8542C4.76664 13.8542 2.1455 11.2331 2.1455 7.99974C2.1455 7.92692 2.14683 7.85444 2.14946 7.78232C2.16417 7.37843 1.84867 7.03907 1.44477 7.02436C1.04087 7.00965 0.701521 7.32515 0.686808 7.72904C0.683536 7.8189 0.681885 7.90914 0.681885 7.99974C0.681885 12.0414 3.95831 15.3178 7.99998 15.3178C12.0417 15.3178 15.3181 12.0414 15.3181 7.99974C15.3181 3.95806 12.0417 0.681641 7.99998 0.681641C6.12525 0.681641 4.41551 1.38686 3.12125 2.54519V1.41345C3.12125 1.00928 2.79361 0.681641 2.38944 0.681641C1.98527 0.681641 1.65763 1.00928 1.65763 1.41345V4.34069C1.65763 4.74486 1.98527 5.0725 2.38944 5.0725H5.31668C5.72085 5.0725 6.04849 4.74486 6.04849 4.34069C6.04849 3.93652 5.72085 3.60888 5.31668 3.60888H4.12735C5.15985 2.69745 6.51557 2.14526 7.99998 2.14526ZM8.48785 4.34069C8.48785 3.93652 8.16021 3.60888 7.75605 3.60888C7.35188 3.60888 7.02424 3.93652 7.02424 4.34069V8.24367C7.02424 8.64784 7.35188 8.97548 7.75605 8.97548H10.6833C11.0875 8.97548 11.4151 8.64784 11.4151 8.24367C11.4151 7.83951 11.0875 7.51186 10.6833 7.51186H8.48785V4.34069Z" fill="#EB670E"/>
</g>
<defs>
<clipPath id="clip0_379_12869">
<rect width="16" height="16" fill="white"/>
</clipPath>
</defs>
</svg>
