<svg width="20" height="20" viewBox="0 0 20 20" fill="none" xmlns="http://www.w3.org/2000/svg">
<path d="M1 4.25C1 2.45507 2.45507 1 4.25 1H15.75C17.5449 1 19 2.45507 19 4.25V15.75C19 17.5449 17.5449 19 15.75 19H4.25C2.45507 19 1 17.5449 1 15.75V4.25ZM4.25 2.5C3.2835 2.5 2.5 3.2835 2.5 4.25V4.5H17.5V4.25C17.5 3.2835 16.7165 2.5 15.75 2.5H4.25ZM2.5 15.75C2.5 16.7165 3.2835 17.5 4.25 17.5H15.75C16.7165 17.5 17.5 16.7165 17.5 15.75V6H2.5V15.75ZM4.85 7.5H8.15C8.61944 7.5 9 7.88056 9 8.35V15.15C9 15.6194 8.61944 16 8.15 16H4.85C4.38056 16 4 15.6194 4 15.15V8.35C4 7.88056 4.38056 7.5 4.85 7.5ZM5.5 14.5H7.5V9H5.5V14.5ZM10 8.25C10 7.83579 10.3358 7.5 10.75 7.5H15.25C15.6642 7.5 16 7.83579 16 8.25C16 8.66421 15.6642 9 15.25 9H10.75C10.3358 9 10 8.66421 10 8.25ZM10.75 10.5C10.3358 10.5 10 10.8358 10 11.25C10 11.6642 10.3358 12 10.75 12H14.25C14.6642 12 15 11.6642 15 11.25C15 10.8358 14.6642 10.5 14.25 10.5H10.75Z" fill="#414651"/>
</svg>
