<svg width="16" height="16" viewBox="0 0 16 16" fill="none" xmlns="http://www.w3.org/2000/svg">
<path d="M7.99998 8.66699C8.36817 8.66699 8.66665 8.36852 8.66665 8.00033C8.66665 7.63214 8.36817 7.33366 7.99998 7.33366C7.63179 7.33366 7.33331 7.63214 7.33331 8.00033C7.33331 8.36852 7.63179 8.66699 7.99998 8.66699Z" fill="#535862"/>
<path d="M7.99998 4.00033C8.36817 4.00033 8.66665 3.70185 8.66665 3.33366C8.66665 2.96547 8.36817 2.66699 7.99998 2.66699C7.63179 2.66699 7.33331 2.96547 7.33331 3.33366C7.33331 3.70185 7.63179 4.00033 7.99998 4.00033Z" fill="#535862"/>
<path d="M7.99998 13.3337C8.36817 13.3337 8.66665 13.0352 8.66665 12.667C8.66665 12.2988 8.36817 12.0003 7.99998 12.0003C7.63179 12.0003 7.33331 12.2988 7.33331 12.667C7.33331 13.0352 7.63179 13.3337 7.99998 13.3337Z" fill="#535862"/>
<path d="M7.99998 8.66699C8.36817 8.66699 8.66665 8.36852 8.66665 8.00033C8.66665 7.63214 8.36817 7.33366 7.99998 7.33366C7.63179 7.33366 7.33331 7.63214 7.33331 8.00033C7.33331 8.36852 7.63179 8.66699 7.99998 8.66699Z" stroke="#535862" stroke-linecap="round" stroke-linejoin="round"/>
<path d="M7.99998 4.00033C8.36817 4.00033 8.66665 3.70185 8.66665 3.33366C8.66665 2.96547 8.36817 2.66699 7.99998 2.66699C7.63179 2.66699 7.33331 2.96547 7.33331 3.33366C7.33331 3.70185 7.63179 4.00033 7.99998 4.00033Z" stroke="#535862" stroke-linecap="round" stroke-linejoin="round"/>
<path d="M7.99998 13.3337C8.36817 13.3337 8.66665 13.0352 8.66665 12.667C8.66665 12.2988 8.36817 12.0003 7.99998 12.0003C7.63179 12.0003 7.33331 12.2988 7.33331 12.667C7.33331 13.0352 7.63179 13.3337 7.99998 13.3337Z" stroke="#535862" stroke-linecap="round" stroke-linejoin="round"/>
</svg>
