<svg width="16" height="16" viewBox="0 0 16 16" fill="none" xmlns="http://www.w3.org/2000/svg">
<g clip-path="url(#clip0_379_12870)">
<path d="M1.17477 12.0751C1.2638 13.6117 2.53811 14.8304 4.09704 14.8304H6.05132C6.05843 14.7191 6.07581 14.606 6.1043 14.492L6.4697 13.0305C6.60682 12.482 6.89044 11.981 7.29025 11.5812L12.0025 6.86892C12.7677 6.10381 13.8653 5.87394 14.8302 6.17933V4.09716L14.8253 3.92516C14.7362 2.38855 13.4619 1.16992 11.903 1.16992H8.00002V5.07291L7.99505 5.2449C7.90932 6.7246 6.72448 7.90944 5.24478 7.99518L5.07278 8.00015H1.1698V11.9031L1.17477 12.0751ZM1.61708 6.38739C1.46072 6.57656 1.34227 6.79255 1.26667 7.02344L5.07278 7.0244L5.22564 7.0185C6.18394 6.94426 6.94815 6.17782 7.01893 5.21855L7.02428 5.07291L7.02331 1.26679C6.73471 1.36129 6.46937 1.52275 6.25061 1.7415L1.74138 6.25074L1.61708 6.38739ZM7.98027 12.2712L12.6926 7.55887C13.4052 6.84624 14.5606 6.84624 15.2732 7.55887C15.9859 8.27151 15.9859 9.42692 15.2732 10.1395L10.5609 14.8518C10.2862 15.1266 9.94195 15.3215 9.565 15.4157L8.10342 15.7811C7.46781 15.94 6.89208 15.3643 7.05098 14.7287L7.41637 13.2671C7.51061 12.8902 7.70552 12.5459 7.98027 12.2712Z" fill="#EB670E"/>
</g>
<defs>
<clipPath id="clip0_379_12870">
<rect width="16" height="16" fill="white"/>
</clipPath>
</defs>
</svg>
