<svg width="13" height="13" viewBox="0 0 13 13" fill="none" xmlns="http://www.w3.org/2000/svg">
<path d="M7.7277 2.7002C8.27712 2.80739 8.78205 3.07609 9.17786 3.47191C9.57368 3.86773 9.84238 4.37266 9.94958 4.92207M7.7277 0.450195C8.86917 0.577003 9.9336 1.08817 10.7462 1.89976C11.5588 2.71136 12.0713 3.77514 12.1996 4.91645M11.6371 9.4052V11.0927C11.6377 11.2494 11.6056 11.4044 11.5429 11.548C11.4801 11.6915 11.3881 11.8203 11.2726 11.9262C11.1572 12.0322 11.0209 12.1128 10.8725 12.163C10.7241 12.2132 10.5669 12.2318 10.4108 12.2177C8.67992 12.0296 7.01726 11.4382 5.55645 10.4908C4.19736 9.62719 3.04508 8.47492 2.18145 7.11582C1.23082 5.64837 0.639215 3.97763 0.454578 2.23895C0.440521 2.0834 0.459007 1.92662 0.508859 1.77861C0.558711 1.6306 0.638836 1.49458 0.744134 1.37923C0.849431 1.26388 0.977593 1.17172 1.12046 1.10861C1.26333 1.04551 1.41777 1.01284 1.57395 1.0127H3.26145C3.53444 1.01001 3.79909 1.10668 4.00607 1.28468C4.21305 1.46269 4.34825 1.70988 4.38645 1.9802C4.45768 2.52023 4.58977 3.05048 4.7802 3.56082C4.85588 3.76215 4.87226 3.98096 4.8274 4.19132C4.78254 4.40167 4.67831 4.59476 4.52708 4.7477L3.8127 5.46207C4.61345 6.87031 5.77946 8.03632 7.1877 8.83707L7.90208 8.1227C8.05502 7.97146 8.2481 7.86724 8.45846 7.82237C8.66881 7.77751 8.88762 7.79389 9.08895 7.86957C9.59929 8.06 10.1295 8.1921 10.6696 8.26332C10.9428 8.30187 11.1924 8.4395 11.3708 8.65004C11.5491 8.86057 11.6439 9.12933 11.6371 9.4052Z" stroke="#2A3582" stroke-width="0.9" stroke-linecap="round" stroke-linejoin="round"/>
</svg>
