<svg width="20" height="20" viewBox="0 0 20 20" fill="none" xmlns="http://www.w3.org/2000/svg">
<path d="M1 3.25C1 2.00736 2.00736 1 3.25 1H12.75C13.9926 1 15 2.00736 15 3.25V12H19V15.75C19 17.5449 17.5449 19 15.75 19H4.25C2.45507 19 1 17.5449 1 15.75V3.25ZM15 17.5H15.75C16.7165 17.5 17.5 16.7165 17.5 15.75V13.5H15V17.5ZM3.25 2.5C2.83579 2.5 2.5 2.83579 2.5 3.25V15.75C2.5 16.7165 3.2835 17.5 4.25 17.5H13.5V3.25C13.5 2.83579 13.1642 2.5 12.75 2.5H3.25ZM5.25 5C4.83579 5 4.5 5.33579 4.5 5.75C4.5 6.16421 4.83579 6.5 5.25 6.5H10.75C11.1642 6.5 11.5 6.16421 11.5 5.75C11.5 5.33579 11.1642 5 10.75 5H5.25ZM4.5 9.75C4.5 9.33579 4.83579 9 5.25 9H10.75C11.1642 9 11.5 9.33579 11.5 9.75C11.5 10.1642 11.1642 10.5 10.75 10.5H5.25C4.83579 10.5 4.5 10.1642 4.5 9.75ZM5.25 13C4.83579 13 4.5 13.3358 4.5 13.75C4.5 14.1642 4.83579 14.5 5.25 14.5H8.25C8.66421 14.5 9 14.1642 9 13.75C9 13.3358 8.66421 13 8.25 13H5.25Z" fill="#414651"/>
</svg>
