<svg width="20" height="20" viewBox="0 0 20 20" fill="none" xmlns="http://www.w3.org/2000/svg">
<g clip-path="url(#clip0_413_10978)">
<path d="M15.226 1.35397L14.878 0.283972C14.8491 0.201021 14.7952 0.129112 14.7236 0.0782263C14.652 0.0273402 14.5663 0 14.4785 0C14.3907 0 14.305 0.0273402 14.2334 0.0782263C14.1618 0.129112 14.1079 0.201021 14.079 0.283972L13.731 1.35397C13.6252 1.67748 13.4458 1.97203 13.2068 2.21443C12.9679 2.45684 12.6759 2.64051 12.354 2.75097L11.283 3.09897C11.2004 3.12805 11.1289 3.18205 11.0782 3.25352C11.0276 3.32499 11.0005 3.4104 11.0005 3.49797C11.0005 3.58554 11.0276 3.67096 11.0782 3.74243C11.1289 3.81389 11.2004 3.86789 11.283 3.89697L12.354 4.24497C12.6807 4.35313 12.9774 4.5364 13.2204 4.78007C13.4634 5.02373 13.6458 5.321 13.753 5.64797L14.101 6.71797C14.1301 6.80058 14.1841 6.87212 14.2555 6.92273C14.327 6.97334 14.4124 7.00052 14.5 7.00052C14.5876 7.00052 14.673 6.97334 14.7445 6.92273C14.8159 6.87212 14.8699 6.80058 14.899 6.71797L15.248 5.64797C15.3559 5.32222 15.5386 5.02622 15.7813 4.78365C16.024 4.54108 16.3202 4.35866 16.646 4.25097L17.718 3.90297C17.8006 3.87389 17.8721 3.81989 17.9228 3.74843C17.9734 3.67696 18.0005 3.59154 18.0005 3.50397C18.0005 3.4164 17.9734 3.33099 17.9228 3.25952C17.8721 3.18805 17.8006 3.13405 17.718 3.10497L17.696 3.09897L16.624 2.75097C16.2982 2.64328 16.002 2.46086 15.7593 2.21829C15.5166 1.97572 15.3339 1.67973 15.226 1.35397ZM19.017 7.96597L19.783 8.21397L19.798 8.21797C19.8566 8.23913 19.9073 8.27785 19.9431 8.32885C19.9789 8.37985 19.9981 8.44065 19.9981 8.50297C19.9981 8.56529 19.9789 8.62609 19.9431 8.67709C19.9073 8.72809 19.8566 8.76681 19.798 8.78797L19.033 9.03597C18.8002 9.11341 18.5886 9.24401 18.4151 9.41741C18.2415 9.59081 18.1107 9.80225 18.033 10.035L17.785 10.799C17.7643 10.858 17.7258 10.9092 17.6747 10.9454C17.6236 10.9816 17.5626 11.0011 17.5 11.0011C17.4374 11.0011 17.3764 10.9816 17.3253 10.9454C17.2742 10.9092 17.2357 10.858 17.215 10.799L16.966 10.035C16.8888 9.8018 16.7583 9.58983 16.5849 9.41589C16.4115 9.24196 16.1999 9.11085 15.967 9.03297L15.202 8.78397C15.1434 8.76281 15.0927 8.72409 15.0569 8.67309C15.0211 8.62209 15.0019 8.56129 15.0019 8.49897C15.0019 8.43665 15.0211 8.37585 15.0569 8.32485C15.0927 8.27385 15.1434 8.23513 15.202 8.21397L15.967 7.96597C16.1968 7.88643 16.4052 7.75489 16.5759 7.58161C16.7466 7.40833 16.8749 7.19799 16.951 6.96697L17.2 6.20297C17.2207 6.1439 17.2592 6.09273 17.3103 6.05652C17.3614 6.02032 17.4224 6.00087 17.485 6.00087C17.5476 6.00087 17.6086 6.02032 17.6597 6.05652C17.7107 6.09273 17.7493 6.1439 17.77 6.20297L18.019 6.96697C18.0966 7.19959 18.2272 7.41096 18.4006 7.58435C18.574 7.75774 18.7844 7.8884 19.017 7.96597ZM14 8.50097C13.9761 8.35863 13.9761 8.21331 14 8.07097V7.85697C13.8599 7.81409 13.728 7.74782 13.61 7.66097C13.3994 7.48696 13.2404 7.25875 13.15 7.00097L13 6.48697V16.001H6C5.46957 16.001 4.96086 15.7903 4.58579 15.4152C4.21071 15.0401 4 14.5314 4 14.001V5.00097C4 4.73576 4.10536 4.4814 4.29289 4.29387C4.48043 4.10633 4.73478 4.00097 5 4.00097H10.097C10.0344 3.84164 10.0015 3.67217 10 3.50097C10.004 3.32928 10.0396 3.15979 10.105 3.00097H5C4.46957 3.00097 3.96086 3.21169 3.58579 3.58676C3.21071 3.96183 3 4.47054 3 5.00097V14.001C3 14.7966 3.31607 15.5597 3.87868 16.1223C4.44129 16.6849 5.20435 17.001 6 17.001H14C14.7956 17.001 15.5587 16.6849 16.1213 16.1223C16.6839 15.5597 17 14.7966 17 14.001V12.501C17 12.3684 16.9473 12.2412 16.8536 12.1474C16.7598 12.0536 16.6326 12.001 16.5 12.001H14V8.50097ZM14 13.001H16V14.001C16 14.5314 15.7893 15.0401 15.4142 15.4152C15.0391 15.7903 14.5304 16.001 14 16.001V13.001ZM6 6.50097C6 6.36836 6.05268 6.24119 6.14645 6.14742C6.24021 6.05365 6.36739 6.00097 6.5 6.00097H10.5C10.6326 6.00097 10.7598 6.05365 10.8536 6.14742C10.9473 6.24119 11 6.36836 11 6.50097C11 6.63358 10.9473 6.76076 10.8536 6.85453C10.7598 6.94829 10.6326 7.00097 10.5 7.00097H6.5C6.36739 7.00097 6.24021 6.94829 6.14645 6.85453C6.05268 6.76076 6 6.63358 6 6.50097ZM6 9.50097C6 9.36836 6.05268 9.24119 6.14645 9.14742C6.24021 9.05365 6.36739 9.00097 6.5 9.00097H10.5C10.6326 9.00097 10.7598 9.05365 10.8536 9.14742C10.9473 9.24119 11 9.36836 11 9.50097C11 9.63358 10.9473 9.76076 10.8536 9.85453C10.7598 9.94829 10.6326 10.001 10.5 10.001H6.5C6.36739 10.001 6.24021 9.94829 6.14645 9.85453C6.05268 9.76076 6 9.63358 6 9.50097ZM6 12.501C6 12.3684 6.05268 12.2412 6.14645 12.1474C6.24021 12.0536 6.36739 12.001 6.5 12.001H8.5C8.63261 12.001 8.75979 12.0536 8.85355 12.1474C8.94732 12.2412 9 12.3684 9 12.501C9 12.6336 8.94732 12.7608 8.85355 12.8545C8.75979 12.9483 8.63261 13.001 8.5 13.001H6.5C6.36739 13.001 6.24021 12.9483 6.14645 12.8545C6.05268 12.7608 6 12.6336 6 12.501Z" fill="#414651"/>
</g>
<defs>
<clipPath id="clip0_413_10978">
<rect width="20" height="20" fill="white"/>
</clipPath>
</defs>
</svg>
