<svg width="20" height="20" viewBox="0 0 20 20" fill="none" xmlns="http://www.w3.org/2000/svg">
<path d="M12.5 1.66667H7.50002C7.03978 1.66667 6.66669 2.03977 6.66669 2.50001V4.16667C6.66669 4.62691 7.03978 5.00001 7.50002 5.00001H12.5C12.9603 5.00001 13.3334 4.62691 13.3334 4.16667V2.50001C13.3334 2.03977 12.9603 1.66667 12.5 1.66667Z" stroke="#2A3582" stroke-width="1.5" stroke-linecap="round" stroke-linejoin="round"/>
<path d="M13.3333 3.33333H15C15.442 3.33333 15.8659 3.50892 16.1785 3.82148C16.4911 4.13404 16.6666 4.55797 16.6666 4.99999V16.6667C16.6666 17.1087 16.4911 17.5326 16.1785 17.8452C15.8659 18.1577 15.442 18.3333 15 18.3333H4.99998C4.55795 18.3333 4.13403 18.1577 3.82147 17.8452C3.50891 17.5326 3.33331 17.1087 3.33331 16.6667V4.99999C3.33331 4.55797 3.50891 4.13404 3.82147 3.82148C4.13403 3.50892 4.55795 3.33333 4.99998 3.33333H6.66665" stroke="#2A3582" stroke-width="1.5" stroke-linecap="round" stroke-linejoin="round"/>
<path d="M10 9.16667H13.3333" stroke="#2A3582" stroke-width="1.5" stroke-linecap="round" stroke-linejoin="round"/>
<path d="M10 13.3333H13.3333" stroke="#2A3582" stroke-width="1.5" stroke-linecap="round" stroke-linejoin="round"/>
<path d="M6.66669 9.16667H6.67502" stroke="#2A3582" stroke-width="1.5" stroke-linecap="round" stroke-linejoin="round"/>
<path d="M6.66669 13.3333H6.67502" stroke="#2A3582" stroke-width="1.5" stroke-linecap="round" stroke-linejoin="round"/>
</svg>
